<?xml version="1.0" encoding="utf-8"?>
<!-- Generator: Adobe Illustrator 25.0.0, SVG Export Plug-In . SVG Version: 6.00 Build 0)  -->
<svg version="1.1" id="Lager_1" xmlns="http://www.w3.org/2000/svg" xmlns:xlink="http://www.w3.org/1999/xlink" x="0px" y="0px"
	 viewBox="0 0 487.1 274.4" style="enable-background:new 0 0 487.1 274.4;" xml:space="preserve">
<style type="text/css">
	.st0{fill:#19212C;}
	.st1{fill:#F8F066;}
</style>
<g>
	<g>
		<path class="st0" d="M21.8,267.7v-13.1c0-0.3,0-0.6,0-0.9s0.1-1.6,0.1-3.8c-0.7,2.8-1.3,4.7-1.6,5.8l-3.9,12.1h-3.2l-4-12.2
			l-1.7-5.8c0.1,2.4,0.2,4,0.2,4.7v13.2h-4V246h6.1l3.9,12.2l0.3,1.2l0.7,2.9l1-3.5l4-12.8h6.1v21.7H21.8L21.8,267.7z"/>
		<path class="st0" d="M32,274.3c-1,0-1.9-0.1-2.7-0.2V271c0.5,0.1,1,0.1,1.5,0.1c0.6,0,1.1-0.1,1.5-0.3c0.4-0.2,0.8-0.5,1.1-1
			s0.7-1.2,1.1-2.3L27.9,251h4.6l2.6,7.8c0.4,1.1,0.9,2.8,1.6,5.2l0.4-1.5l1-3.6l2.5-7.9h4.5l-6.7,17.6c-0.9,2.1-1.8,3.6-2.8,4.4
			C34.7,273.9,33.5,274.3,32,274.3z"/>
		<path class="st0" d="M58,267.7v-9.4c0-2.9-1-4.4-3-4.4c-1,0-1.9,0.4-2.5,1.3s-1,2.1-1,3.5v8.9h-4.3v-13c0-0.9,0-1.6,0-2.2
			s-0.1-1.1-0.1-1.5h4.1c0,0.2,0.1,0.7,0.1,1.6c0.1,0.8,0.1,1.4,0.1,1.8h0.1c0.6-1.3,1.3-2.2,2.2-2.8s1.9-0.9,3.2-0.9
			c1.8,0,3.1,0.5,4.1,1.6c0.9,1.1,1.4,2.7,1.4,4.8v10.6L58,267.7L58,267.7z"/>
		<path class="st0" d="M77,267.7c0-0.2-0.1-0.5-0.1-1.2c-0.1-0.6-0.1-1.1-0.1-1.6h-0.1c-0.9,2-2.7,3-5.3,3c-1.9,0-3.4-0.8-4.5-2.3
			s-1.6-3.6-1.6-6.4s0.6-4.9,1.7-6.4s2.7-2.3,4.7-2.3c1.2,0,2.2,0.2,3.1,0.7s1.5,1.2,2,2.2l0,0v-2.7v-6.1h4.3v19.2
			c0,1,0,2.2,0.1,3.6H77V267.7z M76.8,259.3c0-1.8-0.3-3.2-0.9-4.2c-0.6-1-1.5-1.5-2.7-1.5s-2,0.5-2.6,1.4s-0.8,2.4-0.8,4.3
			c0,3.8,1.1,5.7,3.4,5.7c1.1,0,2-0.5,2.7-1.5C76.5,262.6,76.8,261.1,76.8,259.3z"/>
		<path class="st0" d="M85.2,248v-3.2h4.3v3.2H85.2z M85.2,267.7V251h4.3v16.7H85.2z"/>
		<path class="st0" d="M100.6,274.4c-2,0-3.7-0.4-4.9-1.2c-1.2-0.8-2-1.9-2.3-3.3l4.3-0.5c0.2,0.7,0.5,1.2,1,1.6s1.2,0.6,2,0.6
			c1.2,0,2.1-0.4,2.6-1.1c0.6-0.7,0.8-1.8,0.8-3.3v-0.9v-1.7l0,0c-1,2-2.7,3.1-5.4,3.1c-1.9,0-3.5-0.7-4.5-2.2
			c-1.1-1.5-1.6-3.5-1.6-6.3c0-2.7,0.5-4.8,1.7-6.3c1.1-1.5,2.7-2.2,4.8-2.2c2.4,0,4.1,1,5,3h0.1c0-0.4,0-0.8,0.1-1.5
			c0-0.6,0.1-1,0.1-1.2h4.1c-0.1,1.1-0.1,2.4-0.1,3.9v12.3c0,2.4-0.7,4.2-2,5.4C105.2,273.8,103.2,274.4,100.6,274.4z M104.3,259.2
			c0-1.7-0.3-3.1-0.9-4c-0.6-1-1.5-1.4-2.6-1.4c-2.3,0-3.5,1.9-3.5,5.6c0,3.6,1.1,5.4,3.4,5.4c1.2,0,2-0.5,2.6-1.4
			C104,262.3,104.3,260.9,104.3,259.2z"/>
		<path class="st0" d="M116.9,254.4c0.6-1.3,1.3-2.2,2.2-2.8c0.9-0.6,1.9-0.9,3.2-0.9c1.8,0,3.1,0.5,4.1,1.6
			c0.9,1.1,1.4,2.7,1.4,4.8v10.6h-4.3v-9.3c0-2.9-1-4.4-3-4.4c-1,0-1.9,0.4-2.5,1.3s-1,2.1-1,3.5v8.9h-4.3v-22.9h4.3v6.2
			C117,252.2,117,253.3,116.9,254.4L116.9,254.4z"/>
		<path class="st0" d="M138.5,268c-2.5,0-4.4-0.7-5.8-2.2c-1.3-1.5-2-3.7-2-6.5s0.7-4.9,2.1-6.4c1.4-1.5,3.3-2.2,5.8-2.2
			c2.4,0,4.2,0.8,5.5,2.4c1.3,1.6,1.9,3.9,1.9,7v0.1h-10.7c0,1.6,0.3,2.9,0.9,3.7s1.5,1.2,2.6,1.2c1.5,0,2.5-0.7,2.9-2l4.1,0.4
			C144.5,266.5,142.1,268,138.5,268z M138.5,253.5c-1,0-1.8,0.4-2.4,1.1s-0.8,1.7-0.9,3h6.5c-0.1-1.3-0.4-2.4-1-3
			C140.2,253.8,139.5,253.5,138.5,253.5z"/>
		<path class="st0" d="M153.2,268c-1.3,0-2.3-0.3-2.9-1c-0.7-0.7-1-1.7-1-3.2V254h-2.1v-2.9h2.3l1.4-3.9h2.7v3.9h3.2v2.9h-3.2v8.7
			c0,0.8,0.2,1.4,0.5,1.8s0.8,0.6,1.4,0.6c0.3,0,0.8-0.1,1.4-0.2v2.7C155.8,267.8,154.6,268,153.2,268z"/>
		<path class="st0" d="M166,268c-2.5,0-4.4-0.7-5.8-2.2c-1.3-1.5-2-3.7-2-6.5s0.7-4.9,2.1-6.4c1.4-1.5,3.3-2.2,5.8-2.2
			c2.4,0,4.2,0.8,5.5,2.4c1.3,1.6,1.9,3.9,1.9,7v0.1h-10.7c0,1.6,0.3,2.9,0.9,3.7s1.5,1.2,2.6,1.2c1.5,0,2.5-0.7,2.9-2l4.1,0.4
			C172,266.5,169.6,268,166,268z M166,253.5c-1,0-1.8,0.4-2.4,1.1s-0.8,1.7-0.9,3h6.5c-0.1-1.3-0.4-2.4-1-3
			C167.7,253.8,167,253.5,166,253.5z"/>
		<path class="st0" d="M187.3,267.7v-9.4c0-2.9-1-4.4-3-4.4c-1,0-1.9,0.4-2.5,1.3s-1,2.1-1,3.5v8.9h-4.3v-13c0-0.9,0-1.6,0-2.2
			s-0.1-1.1-0.1-1.5h4.1c0,0.2,0.1,0.7,0.1,1.6c0.1,0.8,0.1,1.4,0.1,1.8h0.1c0.6-1.3,1.3-2.2,2.2-2.8s1.9-0.9,3.2-0.9
			c1.8,0,3.1,0.5,4.1,1.6c0.9,1.1,1.4,2.7,1.4,4.8v10.6L187.3,267.7L187.3,267.7L187.3,267.7z"/>
		<path class="st0" d="M209.1,254v13.8h-4.3V254h-2.4v-2.9h2.4v-1.7c0-1.5,0.4-2.6,1.2-3.4c0.8-0.7,2-1.1,3.7-1.1
			c0.8,0,1.7,0.1,2.7,0.2v2.8c-0.4-0.1-0.8-0.1-1.3-0.1c-0.7,0-1.3,0.1-1.6,0.4c-0.3,0.3-0.5,0.8-0.5,1.6v1.3h3.3v2.9H209.1
			L209.1,254z"/>
		<path class="st0" d="M230.1,259.4c0,2.7-0.8,4.8-2.3,6.4c-1.5,1.5-3.6,2.3-6.2,2.3c-2.6,0-4.6-0.8-6.1-2.3s-2.2-3.7-2.2-6.4
			s0.7-4.8,2.2-6.3s3.6-2.3,6.2-2.3c2.7,0,4.8,0.7,6.2,2.2C229.4,254.4,230.1,256.6,230.1,259.4z M216.6,249.2v-3.4h3.3v3.4H216.6z
			 M225.5,259.4c0-2-0.3-3.4-1-4.3c-0.6-0.9-1.6-1.3-2.8-1.3c-2.6,0-3.9,1.9-3.9,5.7c0,1.9,0.3,3.3,1,4.2c0.6,1,1.6,1.5,2.8,1.5
			C224.2,265.1,225.5,263.2,225.5,259.4z M223.3,249.2v-3.4h3.3v3.4H223.3z"/>
		<path class="st0" d="M233.2,267.7v-12.8c0-0.9,0-1.7,0-2.3s-0.1-1.2-0.1-1.6h4.1c0,0.2,0.1,0.7,0.1,1.7c0.1,0.9,0.1,1.6,0.1,1.9
			h0.1c0.4-1.2,0.8-2,1.1-2.5s0.7-0.8,1.2-1.1c0.5-0.2,1-0.3,1.7-0.3c0.6,0,1,0.1,1.3,0.2v3.6c-0.7-0.2-1.3-0.2-1.9-0.2
			c-1.1,0-1.9,0.4-2.5,1.3s-0.9,2.2-0.9,3.9v8.2H233.2L233.2,267.7z"/>
		<g>
			<path class="st0" d="M256.5,274.3c-1,0-1.9-0.1-2.7-0.2V271c0.5,0.1,1,0.1,1.5,0.1c0.6,0,1.1-0.1,1.5-0.3s0.8-0.5,1.1-1
				c0.3-0.5,0.7-1.2,1.1-2.3l-6.6-16.5h4.6l2.6,7.8c0.4,1.1,0.9,2.8,1.6,5.2l0.4-1.5l1-3.6l2.5-7.9h4.5l-6.7,17.6
				c-0.9,2.1-1.8,3.6-2.8,4.4C259.2,273.9,258,274.3,256.5,274.3z"/>
			<path class="st0" d="M271.6,267.7v-12.8c0-0.9,0-1.7,0-2.3s-0.1-1.2-0.1-1.6h4.1c0,0.2,0.1,0.7,0.1,1.7c0.1,0.9,0.1,1.6,0.1,1.9
				h0.1c0.4-1.2,0.8-2,1.1-2.5c0.3-0.5,0.7-0.8,1.2-1.1c0.5-0.2,1-0.3,1.7-0.3c0.6,0,1,0.1,1.3,0.2v3.6c-0.7-0.2-1.3-0.2-1.9-0.2
				c-1.1,0-1.9,0.4-2.5,1.3s-0.9,2.2-0.9,3.9v8.2H271.6L271.6,267.7z"/>
			<path class="st0" d="M294.3,267.7l-4.5-7.6l-1.9,1.3v6.3h-4.3v-22.9h4.3v13.1l6-6.9h4.7l-5.9,6.5l6.3,10.2H294.3z"/>
			<path class="st0" d="M307.7,268c-2.5,0-4.4-0.7-5.8-2.2c-1.3-1.5-2-3.7-2-6.5s0.7-4.9,2.1-6.4s3.3-2.2,5.8-2.2
				c2.4,0,4.2,0.8,5.5,2.4s1.9,3.9,1.9,7v0.1h-10.7c0,1.6,0.3,2.9,0.9,3.7s1.5,1.2,2.6,1.2c1.5,0,2.5-0.7,2.9-2l4.1,0.4
				C313.8,266.5,311.4,268,307.7,268z M307.7,253.5c-1,0-1.8,0.4-2.4,1.1s-0.8,1.7-0.9,3h6.5c-0.1-1.3-0.4-2.4-1-3
				C309.5,253.8,308.7,253.5,307.7,253.5z"/>
			<path class="st0" d="M332.3,262.8c0,1.6-0.7,2.9-2,3.8s-3.1,1.4-5.5,1.4c-2.3,0-4-0.4-5.3-1.1c-1.2-0.7-2-1.9-2.4-3.4l3.8-0.6
				c0.2,0.8,0.6,1.4,1.1,1.7s1.5,0.5,2.8,0.5c1.2,0,2.1-0.2,2.7-0.5s0.8-0.8,0.8-1.4c0-0.5-0.2-1-0.7-1.3c-0.4-0.3-1.2-0.6-2.3-0.8
				c-2.4-0.5-4.1-0.9-5-1.3s-1.5-1-2-1.6c-0.4-0.7-0.7-1.5-0.7-2.4c0-1.6,0.6-2.8,1.8-3.7c1.2-0.9,3-1.3,5.2-1.3
				c2,0,3.6,0.4,4.8,1.2c1.2,0.8,2,1.9,2.3,3.3l-3.8,0.4c-0.1-0.7-0.4-1.2-0.9-1.5s-1.2-0.5-2.3-0.5c-1,0-1.8,0.1-2.3,0.4
				s-0.8,0.7-0.8,1.3c0,0.5,0.2,0.9,0.6,1.1c0.4,0.3,1.1,0.5,2,0.7c1.3,0.3,2.5,0.5,3.5,0.8s1.8,0.6,2.4,1s1.1,0.9,1.5,1.5
				C332.1,261.1,332.3,261.9,332.3,262.8z"/>
			<path class="st0" d="M339.7,254.4c0.6-1.3,1.3-2.2,2.2-2.8c0.9-0.6,1.9-0.9,3.2-0.9c1.8,0,3.1,0.5,4.1,1.6
				c0.9,1.1,1.4,2.7,1.4,4.8v10.6h-4.3v-9.3c0-2.9-1-4.4-3-4.4c-1,0-1.9,0.5-2.5,1.3c-0.6,0.9-1,2.1-1,3.5v8.9h-4.3v-22.9h4.3v6.2
				C339.8,252.2,339.8,253.3,339.7,254.4L339.7,254.4z"/>
			<path class="st0" d="M370.3,259.4c0,2.7-0.8,4.8-2.3,6.4c-1.5,1.5-3.6,2.3-6.2,2.3s-4.6-0.8-6.1-2.3s-2.2-3.7-2.2-6.4
				s0.7-4.8,2.2-6.3s3.6-2.3,6.2-2.3c2.7,0,4.8,0.7,6.2,2.2C369.6,254.4,370.3,256.6,370.3,259.4z M356.9,249.2v-3.4h3.3v3.4H356.9z
				 M365.8,259.4c0-2-0.3-3.4-1-4.3s-1.6-1.3-2.8-1.3c-2.6,0-3.9,1.9-3.9,5.7c0,1.9,0.3,3.3,1,4.2c0.6,1,1.6,1.5,2.8,1.5
				C364.5,265.1,365.8,263.2,365.8,259.4z M363.6,249.2v-3.4h3.3v3.4H363.6z"/>
			<path class="st0" d="M380.5,274.4c-2,0-3.7-0.4-4.9-1.2c-1.2-0.8-2-1.9-2.3-3.3l4.3-0.5c0.2,0.7,0.5,1.2,1,1.6s1.2,0.6,2,0.6
				c1.2,0,2.1-0.4,2.6-1.1s0.8-1.8,0.8-3.3v-0.9v-1.7l0,0c-1,2-2.7,3.1-5.4,3.1c-1.9,0-3.5-0.7-4.5-2.2c-1.1-1.5-1.6-3.5-1.6-6.3
				c0-2.7,0.5-4.8,1.7-6.3c1.1-1.5,2.7-2.2,4.8-2.2c2.4,0,4.1,1,5,3h0.1c0-0.4,0-0.8,0.1-1.5c0-0.6,0.1-1,0.1-1.2h4.1
				c-0.1,1.1-0.1,2.4-0.1,3.9v12.3c0,2.4-0.7,4.2-2,5.4C385,273.8,383.1,274.4,380.5,274.4z M384.1,259.1c0-1.7-0.3-3.1-0.9-4
				c-0.6-1-1.5-1.4-2.6-1.4c-2.3,0-3.5,1.9-3.5,5.6c0,3.6,1.1,5.4,3.4,5.4c1.2,0,2-0.5,2.6-1.4C383.8,262.3,384.1,260.9,384.1,259.1
				z"/>
			<path class="st0" d="M406.6,262.8c0,1.6-0.7,2.9-2,3.8s-3.1,1.4-5.5,1.4c-2.3,0-4-0.4-5.3-1.1c-1.2-0.7-2-1.9-2.4-3.4l3.8-0.6
				c0.2,0.8,0.6,1.4,1.1,1.7s1.5,0.5,2.8,0.5c1.2,0,2.1-0.2,2.7-0.5s0.8-0.8,0.8-1.4c0-0.5-0.2-1-0.7-1.3c-0.4-0.3-1.2-0.6-2.3-0.8
				c-2.4-0.5-4.1-0.9-5-1.3s-1.5-1-2-1.6c-0.4-0.7-0.7-1.5-0.7-2.4c0-1.6,0.6-2.8,1.8-3.7c1.2-0.9,3-1.3,5.2-1.3
				c2,0,3.6,0.4,4.8,1.2c1.2,0.8,2,1.9,2.3,3.3l-3.8,0.4c-0.1-0.7-0.4-1.2-0.9-1.5s-1.2-0.5-2.3-0.5c-1,0-1.8,0.1-2.3,0.4
				s-0.8,0.7-0.8,1.3c0,0.5,0.2,0.9,0.6,1.1c0.4,0.3,1.1,0.5,2,0.7c1.3,0.3,2.5,0.5,3.5,0.8s1.8,0.6,2.4,1s1.1,0.9,1.5,1.5
				C406.4,261.1,406.6,261.9,406.6,262.8z"/>
			<path class="st0" d="M420.4,267.7l-4.5-7.6l-1.9,1.3v6.3h-4.3v-22.9h4.3v13.1l6-6.9h4.7l-5.9,6.5l6.3,10.2H420.4z"/>
			<path class="st0" d="M442.9,259.4c0,2.7-0.8,4.8-2.3,6.4c-1.5,1.5-3.6,2.3-6.2,2.3s-4.6-0.8-6.1-2.3s-2.2-3.7-2.2-6.4
				s0.7-4.8,2.2-6.3s3.6-2.3,6.2-2.3c2.7,0,4.8,0.7,6.2,2.2C442.2,254.4,442.9,256.6,442.9,259.4z M438.4,259.4c0-2-0.3-3.4-1-4.3
				c-0.6-0.9-1.6-1.3-2.8-1.3c-2.6,0-3.9,1.9-3.9,5.7c0,1.9,0.3,3.3,1,4.2c0.6,1,1.6,1.5,2.8,1.5
				C437.1,265.1,438.4,263.2,438.4,259.4z"/>
			<path class="st0" d="M446.1,267.7v-22.9h4.3v22.9H446.1z"/>
			<path class="st0" d="M458.4,268c-1.6,0-2.9-0.4-3.8-1.3s-1.4-2.1-1.4-3.7c0-1.7,0.6-3,1.7-3.9s2.8-1.4,4.9-1.4l3.6-0.1v-0.8
				c0-1.1-0.2-1.9-0.6-2.4s-1-0.8-1.9-0.8c-0.8,0-1.4,0.2-1.8,0.5c-0.4,0.4-0.6,1-0.7,1.8l-4.5-0.2c0.3-1.6,1-2.9,2.2-3.7
				s2.9-1.3,4.9-1.3c2.1,0,3.7,0.5,4.9,1.6c1.1,1,1.7,2.5,1.7,4.4v6.1c0,0.9,0.1,1.6,0.3,1.9c0.2,0.4,0.6,0.5,1.1,0.5
				c0.3,0,0.6,0,1-0.1v2.3c-0.3,0.1-0.5,0.1-0.7,0.2s-0.4,0.1-0.6,0.1s-0.4,0.1-0.7,0.1c-0.2,0-0.5,0-0.8,0c-1.1,0-1.9-0.3-2.4-0.8
				s-0.8-1.3-0.9-2.4l0,0C462.7,266.9,460.9,268,458.4,268z M463.5,260h-2.2c-1,0-1.7,0.2-2.1,0.3c-0.4,0.2-0.7,0.5-1,0.8
				c-0.2,0.4-0.3,0.9-0.3,1.5c0,0.8,0.2,1.4,0.5,1.8c0.4,0.4,0.9,0.6,1.5,0.6c0.7,0,1.3-0.2,1.9-0.6s1-0.9,1.3-1.5
				c0.3-0.7,0.5-1.3,0.5-2.1L463.5,260L463.5,260z"/>
			<path class="st0" d="M482.7,267.7v-9.4c0-2.9-1-4.4-3-4.4c-1,0-1.9,0.5-2.5,1.3c-0.6,0.9-1,2.1-1,3.5v8.9h-4.3v-13
				c0-0.9,0-1.6,0-2.2s-0.1-1.1-0.1-1.5h4.1c0,0.2,0.1,0.7,0.1,1.6c0.1,0.8,0.1,1.4,0.1,1.8h0.1c0.6-1.3,1.3-2.2,2.2-2.8
				c0.9-0.6,1.9-0.9,3.2-0.9c1.8,0,3.1,0.5,4.1,1.6c0.9,1.1,1.4,2.7,1.4,4.8v10.6L482.7,267.7L482.7,267.7L482.7,267.7z"/>
		</g>
	</g>
	<g>
		<g>
			<rect x="267.3" y="-0.1" class="st1" width="219.7" height="219.7"/>
			<g>
				<path class="st0" d="M354.6,113v39.8h-21.1V113l-36.1-57.2h22.2l24.3,41l24.6-41h22.2L354.6,113z"/>
				<path class="st0" d="M410.9,96.2c2.5-5.4,5.6-9.3,9.3-11.8c3.7-2.4,8.2-3.7,13.4-3.7c7.5,0,13.2,2.3,17.3,6.9
					c4,4.6,6,11.4,6,20.3v44.8h-18.3v-39.6c0-12.4-4.2-18.6-12.6-18.6c-4.4,0-8,1.9-10.7,5.7s-4.1,8.7-4.1,14.7v37.8h-18.4v-97h18.4
					v26.5c0,4.7-0.2,9.4-0.5,13.9L410.9,96.2L410.9,96.2L410.9,96.2z"/>
			</g>
		</g>
		<g>
			<path class="st0" d="M196.7,219.6V86.5c0-3,0-6,0.1-9s0.6-16,1.6-38.8c-8,28-13.8,47.4-17.7,58.5L138,219.6h-35.3L60,97.1
				L42,38.6c1.3,24.1,2,40.1,2,47.9v133.1H0V-0.1h66.4l42.4,122.9l3.7,11.8l8.1,29.5l10.6-35.2L174.7,0h66.1v219.6H196.7z"/>
		</g>
	</g>
</g>
</svg>
